<svg version="1" xmlns="http://www.w3.org/2000/svg" width="501.333" height="501.333" viewBox="0 0 376.000000 376.000000"><path d="M178.9 36.4c-.2.2-2.8.7-5.8 1.1-22.6 2.8-49 19.5-62.8 39.6-10.9 15.8-17.1 35.3-17.3 54 0 5.2-.2 5.7-2.5 6.3-8.6 2.2-25.7 12.7-34.8 21.5-20.2 19.4-30.2 44.3-29.2 72.6.4 13.3 2.5 23 7.5 34.7 9.5 22.2 29.5 41.7 52.5 50.9 23.9 9.5 51.7 8.9 75.4-1.8 4.9-2.2 18.8-10.6 20.1-12.2.3-.3 2.2-2.1 4.2-4l3.6-3.3 6.1 5c9.1 7.6 20.5 13.9 31.7 17.6 20 6.5 46.4 5.5 65.9-2.6 14.8-6.2 30.8-18.7 40-31.1 2.5-3.4 4.9-6.7 5.3-7.2 3.1-4.1 10.9-23.8 11.9-30 .2-1.7.8-4.7 1.3-6.8 1.1-5.1 1.1-23.3 0-28.3-.5-2.1-1.2-5.5-1.5-7.4-.3-1.9-1.8-6.8-3.2-10.9-8.5-24.8-29.3-46.7-53.5-56.6l-8.3-3.4-.7-8.1c-1.5-18-6.1-31.9-15.4-46.2-13-20.3-35.8-36.1-59.4-41.5-6-1.3-30.1-2.8-31.1-1.9z"/></svg>